# xmcd
#
# Track frame offsets: 
#        150
#        20077
#        38116
#        50340
#        70915
#        89559
#        110321
#        133140
#        148458
#        162587
#        181522
#        194797
#
# Disc length: 2781 seconds
#
# Revision: 0
# Processed by: cddbd v1.5.2PL0 Copyright (c) Steve Scherf et al.
# Submitted via: ExactAudioCopy v0.99pb3
#
DISCID=b60adb0c
DTITLE=Doo The Doo - Re Zo Re
DYEAR=2003
DGENRE=Blues
TTITLE0=This house ain't your home anymore
TTITLE1=My backscratcher
TTITLE2=A lonely richman song
TTITLE3=I wish you would
TTITLE4=One of these days
TTITLE5=I'm a king bee
TTITLE6=Anyway, anyhow
TTITLE7=Two time woman
TTITLE8=Hipshakin' woman
TTITLE9=I've got love for you
TTITLE10=Donkey stomp
TTITLE11=When you dance
EXTD=
EXTT0=
EXTT1=
EXTT2=
EXTT3=
EXTT4=
EXTT5=
EXTT6=
EXTT7=
EXTT8=
EXTT9=
EXTT10=
EXTT11=
PLAYORDER=
